<svg xmlns="http://www.w3.org/2000/svg" viewBox="0 0 32 32">
    <g>
        <g>
            <path d="M21.437 12.788l1.753-2.55v2.55zm3.183 2.9v-1.561h.684v-1.34h-.684V7.889h-1.456l-3.324 4.898v1.34h3.35v1.562zm-4.966-13.57c5.588 0 10.119 4.49 10.119 10.029 0 3.407-1.716 6.416-4.337 8.228l1.582 1.577c2.934-2.24 4.826-5.752 4.826-9.706C31.844 5.483 26.312 0 19.487 0A12.373 12.373 0 0 0 9.74 4.722l1.647 1.643a10.13 10.13 0 0 1 8.265-4.247zm-2.88 10.479l-2.375 2.399v.693h5.317v-1.34H16.98l.86-.9c.69-.71 1.164-1.326 1.424-1.846s.389-1.007.389-1.46c0-.378-.107-.751-.321-1.118a2.207 2.207 0 0 0-.856-.843c-.356-.195-.768-.292-1.234-.292-.755 0-1.373.235-1.855.706-.482.47-.742 1.116-.78 1.937h1.425c.014-.396.125-.71.334-.941.209-.231.47-.347.783-.347.309 0 .562.096.759.287a.967.967 0 0 1 .294.726c0 .283-.095.599-.284.949-.19.35-.571.812-1.145 1.388zm9.793 10.506c-3.674-3.641-4.008-3.707-4.943-2.98-.935.729-2.228 1.738-2.538 2.516-.283.709-.2 1.324-.2 1.324s-1.403.265-2.74-.596c-1.335-.861-7.146-6.024-8.081-8.142-.935-2.118-.2-2.251-.2-2.251s.935.199 1.87-.596c.935-.794 2.47-2.052 2.338-3.111-.133-1.06-1.336-1.92-3.273-3.84S5.928 2.25 4.725 2.25c-1.203 0-2.404 1.324-3.273 2.516-.868 1.19-1.87 3.177-1.27 6.355.602 3.178 2.673 8.34 6.346 11.98 3.674 3.642 7.748 7.018 13.893 8.54 6.145 1.522 9.284-3.84 9.284-4.37 0-.664.535-.528-3.14-4.17z"/>
        </g>
    </g>
</svg>